<svg width="64" height="64" viewBox="0 0 64 64" fill="none" xmlns="http://www.w3.org/2000/svg">
<circle cx="32" cy="32" r="32" fill="white"/>
<path d="M57.5 29C56 20 56 21.5 52.5 15.3726C46.4989 9.37142 40.5 6.5 32 6C23.5 6.5 18.5 9 12 15.3726C9.99998 18.5 6.5 23 6.5 29H20L24 22.5L32 19.5L40 22.5L44 29H57.5Z" fill="#FFFF00"/>
<path d="M32 0C36.2023 0 40.3635 0.827705 44.2459 2.43586C48.1283 4.04401 51.6559 6.40111 54.6274 9.37258C57.5989 12.3441 59.956 15.8717 61.5641 19.7541C63.1723 23.6365 64 27.7977 64 32C64 40.4869 60.6286 48.6263 54.6274 54.6274C48.6263 60.6286 40.4869 64 32 64C27.7977 64 23.6365 63.1723 19.7541 61.5641C15.8717 59.956 12.3441 57.5989 9.37258 54.6274C3.37142 48.6263 0 40.4869 0 32C0 23.5131 3.37142 15.3737 9.37258 9.37258C15.3737 3.37142 23.5131 0 32 0ZM32 6.4C18.944 6.4 8.16 16.16 6.592 28.8H19.616C21.024 23.264 26.048 19.2 32 19.2C37.952 19.2 42.976 23.264 44.384 28.8H57.408C55.84 16.16 45.056 6.4 32 6.4ZM32 57.6C45.056 57.6 55.84 47.84 57.408 35.2H44.384C42.976 40.736 37.952 44.8 32 44.8C26.048 44.8 21.024 40.736 19.616 35.2H6.592C8.16 47.84 18.944 57.6 32 57.6ZM32 25.6C30.3026 25.6 28.6748 26.2743 27.4745 27.4745C26.2743 28.6748 25.6 30.3026 25.6 32C25.6 33.6974 26.2743 35.3252 27.4745 36.5255C28.6748 37.7257 30.3026 38.4 32 38.4C33.6974 38.4 35.3252 37.7257 36.5255 36.5255C37.7257 35.3252 38.4 33.6974 38.4 32C38.4 30.3026 37.7257 28.6748 36.5255 27.4745C35.3252 26.2743 33.6974 25.6 32 25.6Z" fill="black"/>
</svg>
